<svg id="Ebene_1" data-name="Ebene 1" xmlns="http://www.w3.org/2000/svg" viewBox="0 0 225.61 102.02"><defs><style>.cls-1,.cls-2{fill:#fff;}.cls-2{fill-rule:evenodd;}</style></defs><title>EIT-Digital-Alumni_White</title><rect class="cls-1" x="53.86" y="33.98" width="2.88" height="2.88"/><rect class="cls-1" x="53.86" y="39.67" width="2.88" height="22.68"/><path class="cls-2" d="M237.37,126.82h2.88v5.69h11.31v2.81H240.25V149.5a2.83,2.83,0,0,0,2.81,2.88h8.5v2.81h-8.5a5.7,5.7,0,0,1-5.69-5.69V135.32h-4.24v-2.81h4.24Z" transform="translate(-175.02 -92.84)"/><path class="cls-1" d="M222.83,141H203.89c.08-2.08.58-3.52,1.59-4.32a5.43,5.43,0,0,1,2.73-1.15,23.88,23.88,0,0,1,5.19-.36,24.57,24.57,0,0,1,5.18.36,5.76,5.76,0,0,1,2.74,1.15C222.33,137.48,222.83,138.92,222.83,141Zm-18.94,2.88h22.18a26.46,26.46,0,0,0-.43-5.61,8.34,8.34,0,0,0-1.51-3.24,6.72,6.72,0,0,0-3.6-2.23,33,33,0,0,0-7.2-.58,33.9,33.9,0,0,0-7.28.58,6.23,6.23,0,0,0-3.52,2.23,6.67,6.67,0,0,0-1.52,3.24,31.39,31.39,0,0,0,0,11.16,6.75,6.75,0,0,0,1.52,3.24,6.23,6.23,0,0,0,3.52,2.23,29.83,29.83,0,0,0,7.28.58,29.08,29.08,0,0,0,7.2-.58,6.72,6.72,0,0,0,3.6-2.23,8.22,8.22,0,0,0,1.29-2.45H222a7,7,0,0,1-.72.86,6.43,6.43,0,0,1-2.74,1.16,33.3,33.3,0,0,1-5.18.28,32.31,32.31,0,0,1-5.19-.28,6,6,0,0,1-2.73-1.16,5,5,0,0,1-1.51-3.6C203.89,146.33,203.89,145,203.89,143.88Z" transform="translate(-175.02 -92.84)"/><path class="cls-2" d="M226.07,194.86a51,51,0,1,0,0-102,50.1,50.1,0,0,0-25.49,6.84l2.81,4.89a44.86,44.86,0,0,1,22.68-6,45.36,45.36,0,1,1-45.36,45.36H175A51,51,0,0,0,226.07,194.86Z" transform="translate(-175.02 -92.84)"/><path class="cls-2" d="M226.07,183.56a39.58,39.58,0,0,0,34.34-19.88l-4.89-2.8a34,34,0,1,1,0-34.06l4.89-2.81a39.67,39.67,0,1,0-34.34,59.55Z" transform="translate(-175.02 -92.84)"/><path class="cls-1" d="M293.72,132.61h15.74c7,0,8.79.38,10.5,2.19,1.5,1.61,2,3.83,2,9.2,0,5.06-.72,7.94-2.43,9.55s-3.38,1.88-9.81,1.88h-16Zm15.84,20.15c4.41,0,4.55,0,5.81-.31,2.47-.58,3.46-3,3.46-8.59,0-3.52-.48-6-1.37-7.08-.75-.89-1.81-1.3-3.9-1.43-.61-.07-1.61-.07-4.17-.07H296.76v17.48Z" transform="translate(-175.02 -92.84)"/><path class="cls-1" d="M327.08,132.61v3h-2.5v-3Zm0,7v15.84h-2.5V139.59Z" transform="translate(-175.02 -92.84)"/><path class="cls-1" d="M350,139.59v11.87c0,4.86-.34,6.6-1.54,7.94-1.43,1.57-3.25,1.95-9.16,1.95-5.31,0-7.5-.59-8.76-2.3a4,4,0,0,1-.76-2.84h2.61c.2,2.33,1.53,2.95,6.63,2.95,4.79,0,6.6-.35,7.46-1.44.72-.89.85-1.68,1-4.93h-.17c-1.37,1.71-2.63,2.06-7.73,2.06-4.45,0-6.54-.38-7.8-1.34-1.64-1.26-2.4-3.25-2.4-6.43,0-3.69,1.1-5.88,3.43-6.91,1.36-.58,3.21-.79,7.28-.79,3.53,0,4.69.17,5.78.79a4.1,4.1,0,0,1,1.51,1.44h.14l0-2Zm-16.21,2.84q-1.75,1-1.75,4.72c0,2.77.69,4.27,2.19,5,.86.38,2.64.55,5.51.55,3.52,0,5.17-.24,6.12-.89,1.17-.82,1.61-2.19,1.61-4.89,0-4.38-1.3-5.31-7.39-5.31C336.6,141.57,334.78,141.81,333.76,142.43Z" transform="translate(-175.02 -92.84)"/><path class="cls-1" d="M355.26,132.61v3h-2.5v-3Zm0,7v15.84h-2.5V139.59Z" transform="translate(-175.02 -92.84)"/><path class="cls-1" d="M363.13,135.65v3.94h11.09v2.15H363.13v6.85c.07,3,.07,3.11.59,3.76s1.78,1.09,4.17,1.09c2.22,0,3.08-.24,3.63-1.09.37-.58.48-1.16.48-3.11v-1h2.49v1c0,2.46-.2,3.49-.85,4.44-.93,1.41-2.64,1.95-6,1.95s-5.2-.51-6.12-1.78c-.69-.95-.89-1.95-.89-4.44v-7.67h-3.9v-2.15h3.9v-3.94Z" transform="translate(-175.02 -92.84)"/><path class="cls-1" d="M376.63,144.34v-.68c0-3.32,2-4.28,8.89-4.28,5.37,0,7.22.38,8.55,1.78,1.1,1.1,1.34,2.16,1.34,5.92v8.35h-2.5l0-1.85h-.1c-1.2,1.71-2.36,2-7.18,2-5.68,0-7.19-.2-8.35-1.09s-1.37-1.78-1.37-3.7c0-2.49.62-3.73,2.26-4.34,1-.38,2.46-.51,5.82-.51,6.5,0,7.59.2,8.69,1.71h.2V146c0-1.65-.17-2.33-.75-3-.89-1.1-2.33-1.41-6.47-1.41-5.44,0-6.4.38-6.43,2.57v.2Zm2.9,4.42a2.34,2.34,0,0,0-.92,2.12,2,2,0,0,0,1.23,2.15c.72.31,2.43.41,6.33.41,5.3,0,6.57-.51,6.57-2.63s-1.51-2.6-7.08-2.6C381.45,148.21,380.25,148.31,379.53,148.76Z" transform="translate(-175.02 -92.84)"/><path class="cls-1" d="M400.63,132.61v22.82h-2.5V132.61Z" transform="translate(-175.02 -92.84)"/><path class="cls-1" d="M304.73,175.69h-9.44l-1.39,2.47h-1.76l6.62-11.68h2.48l6.61,11.68h-1.74Zm-4.38-7.85h-.63L296,174.33H304Z" transform="translate(-175.02 -92.84)"/><path class="cls-1" d="M310.1,166.48V176.8h9.22v1.36H308.54V166.48Z" transform="translate(-175.02 -92.84)"/><path class="cls-1" d="M321.66,166.48v7.29c0,2.22.14,2.57,1.12,2.82a21.88,21.88,0,0,0,3.88.21c3.74,0,4.88-.14,5.3-.63s.35-.58.37-3.95v-5.74h1.56v5.74a30.23,30.23,0,0,1-.09,3.23,2.48,2.48,0,0,1-2.12,2.5,35.39,35.39,0,0,1-4.67.25,29.62,29.62,0,0,1-4.8-.25,2.52,2.52,0,0,1-2-2.29,24.4,24.4,0,0,1-.13-3.44v-5.74Z" transform="translate(-175.02 -92.84)"/><path class="cls-1" d="M338.65,166.48l6.34,9.91,6.22-9.91h3.14v11.68h-1.56V167.93h-.65l-6.52,10.23h-1.26l-6.59-10.23h-.68v10.23h-1.56V166.48Z" transform="translate(-175.02 -92.84)"/><path class="cls-1" d="M358.69,166.48l10.21,10.25h.37V166.48h1.55v11.68h-2.64L358,167.93h-.35v10.23h-1.56V166.48Z" transform="translate(-175.02 -92.84)"/><path class="cls-1" d="M374.13,166.48v11.68h-1.56V166.48Z" transform="translate(-175.02 -92.84)"/></svg>