<svg xmlns="http://www.w3.org/2000/svg" viewBox="0 0 170.73 77.89"><defs><style>.cls-1,.cls-2{fill:#fff;}.cls-2{fill-rule:evenodd;}</style></defs><title>Asset 1</title><g id="Layer_2" data-name="Layer 2"><g id="Layer_1-2" data-name="Layer 1"><path class="cls-1" d="M90,30.33h11.88c5.32,0,6.64.29,7.93,1.66,1.13,1.21,1.5,2.89,1.5,6.94,0,3.82-.55,6-1.84,7.21s-2.56,1.42-7.41,1.42H90Zm12,15.21c3.33,0,3.43,0,4.39-.23,1.86-.44,2.61-2.3,2.61-6.48,0-2.66-.37-4.49-1-5.35-.57-.67-1.36-1-2.94-1.08-.47,0-1.21,0-3.15,0H92.33V45.54Z"/><path class="cls-1" d="M115.21,32.58h-1.88V30.33h1.88Zm0,15h-1.88v-12h1.88Z"/><path class="cls-1" d="M132.49,35.6v9c0,3.67-.26,5-1.16,6-1.09,1.19-2.45,1.47-6.92,1.47-4,0-5.66-.44-6.61-1.73a3,3,0,0,1-.57-2.14h2c.16,1.76,1.17,2.22,5,2.22,3.62,0,5-.26,5.63-1.08s.65-1.27.75-3.72h-.13c-1,1.29-2,1.55-5.83,1.55-3.36,0-4.94-.29-5.89-1-1.24-1-1.81-2.45-1.81-4.85,0-2.79.83-4.45,2.58-5.22,1-.44,2.43-.59,5.5-.59,2.66,0,3.54.12,4.37.59a3,3,0,0,1,1.13,1.08h.11l0-1.52Zm-12.24,2.14c-.87.49-1.31,1.68-1.31,3.57,0,2.09.51,3.22,1.65,3.74a12.42,12.42,0,0,0,4.16.41c2.66,0,3.89-.18,4.62-.67s1.21-1.65,1.21-3.69c0-3.3-1-4-5.58-4-2.6,0-4,.18-4.75.64"/><path class="cls-1" d="M136.48,32.58H134.6V30.33h1.88Zm0,15H134.6v-12h1.88Z"/><path class="cls-1" d="M142.43,32.63v3h8.36v1.63h-8.36v5.16c0,2.27,0,2.35.43,2.84s1.35.83,3.15.83,2.33-.18,2.74-.83c.29-.44.36-.88.36-2.35v-.75H151v.75c0,1.86-.16,2.64-.65,3.36-.69,1.06-2,1.47-4.52,1.47s-3.92-.39-4.62-1.34c-.51-.72-.67-1.47-.67-3.36V37.23H137.6V35.6h2.94v-3Z"/><path class="cls-1" d="M152.61,39.19v-.52c0-2.5,1.52-3.22,6.71-3.22,4.06,0,5.45.28,6.46,1.34.82.83,1,1.63,1,4.47v6.3H164.9l0-1.4h-.07c-.91,1.29-1.78,1.55-5.42,1.55-4.29,0-5.43-.15-6.31-.83s-1-1.34-1-2.78c0-1.89.47-2.82,1.71-3.28.72-.29,1.85-.39,4.39-.39,4.9,0,5.73.16,6.55,1.29h.16V40.43a3,3,0,0,0-.57-2.27c-.67-.83-1.76-1.06-4.88-1.06-4.1,0-4.83.28-4.85,1.94v.15Zm2.19,3.33a1.77,1.77,0,0,0-.69,1.6,1.49,1.49,0,0,0,.93,1.63c.54.23,1.83.31,4.77.31,4,0,5-.39,5-2s-1.14-2-5.34-2c-3.18,0-4.08.08-4.63.41"/><rect class="cls-1" x="168.84" y="30.33" width="1.88" height="17.22"/><rect class="cls-1" x="41.16" y="25.96" width="2.2" height="2.2" transform="translate(15.06 69.22) rotate(-89.81)"/><rect class="cls-1" x="33.56" y="37.86" width="17.32" height="2.2" transform="translate(3.12 81.04) rotate(-89.81)"/><path class="cls-2" d="M47.65,26h2.19v4.34l8.63,0v2.14l-8.63,0,0,10.83a2.15,2.15,0,0,0,2.13,2.2l6.49,0v2.15l-6.48,0a4.34,4.34,0,0,1-4.33-4.35l0-10.83H44.38V30.31h3.24Z"/><path class="cls-1" d="M36.51,36.77l-14.46-.05a4.2,4.2,0,0,1,1.22-3.3,4.16,4.16,0,0,1,2.09-.87,17.85,17.85,0,0,1,4-.26,18.79,18.79,0,0,1,4,.29,4.29,4.29,0,0,1,2.08.88A4,4,0,0,1,36.51,36.77ZM22,38.92,39,39a20.72,20.72,0,0,0-.31-4.29,6.38,6.38,0,0,0-1.15-2.47,5.12,5.12,0,0,0-2.74-1.72,25.44,25.44,0,0,0-5.5-.45,25.8,25.8,0,0,0-5.55.42A4.76,4.76,0,0,0,21,32.15a5.18,5.18,0,0,0-1.16,2.47,23.77,23.77,0,0,0,0,8.52A5.07,5.07,0,0,0,21,45.62a4.73,4.73,0,0,0,2.68,1.71,22.45,22.45,0,0,0,5.55.46,21.91,21.91,0,0,0,5.5-.42,5.08,5.08,0,0,0,2.76-1.7,6,6,0,0,0,1-1.86H35.88a6.41,6.41,0,0,1-.55.66,4.92,4.92,0,0,1-2.09.87,25.72,25.72,0,0,1-4,.21,24,24,0,0,1-4-.24,4.66,4.66,0,0,1-2.09-.88,3.89,3.89,0,0,1-1.14-2.75C22,40.79,22,39.8,22,38.92Z"/><path class="cls-2" d="M38.85,77.89A38.95,38.95,0,1,0,39.1,0,38.3,38.3,0,0,0,19.62,5.16L21.76,8.9A34.25,34.25,0,0,1,39.09,4.34,34.63,34.63,0,1,1,4.34,38.86H0A39,39,0,0,0,38.85,77.89Z"/><path class="cls-1" d="M1.39,40.22A37.6,37.6,0,1,0,39.1,1.37,37.25,37.25,0,0,0,21.5,5.68l.78,1.37A35.34,35.34,0,0,1,39.09,3,36,36,0,1,1,3,40.23Z"/><path class="cls-2" d="M38.87,69.26A30.19,30.19,0,0,0,65.14,54.17L61.41,52a26,26,0,1,1,.09-26l3.74-2.13A30.29,30.29,0,1,0,38.87,69.26Z"/><path class="cls-1" d="M39.07,10A29,29,0,1,0,63.24,54.66l-1.36-.79a27.59,27.59,0,0,1-9.13,8.69,27.35,27.35,0,1,1,.15-47.14A27.59,27.59,0,0,1,62,24.17l1.37-.78A28.83,28.83,0,0,0,39.07,10Z"/><path class="cls-2" d="M38.85,77.89A38.95,38.95,0,1,0,39.1,0,38.3,38.3,0,0,0,19.62,5.16L21.76,8.9A34.25,34.25,0,0,1,39.09,4.34,34.63,34.63,0,1,1,4.34,38.86H0A39,39,0,0,0,38.85,77.89Z"/><path class="cls-2" d="M38.87,69.26A30.19,30.19,0,0,0,65.14,54.17L61.41,52a26,26,0,1,1,.09-26l3.74-2.13A30.29,30.29,0,1,0,38.87,69.26Z"/><path class="cls-1" d="M99.68,62.74H92.41l-1.07,1.9H90l5.1-9H97l5.09,9h-1.34Zm-3.37-6.05h-.49l-2.83,5h6.13Z"/><path class="cls-1" d="M103.83,55.64v8h7.1v1h-8.3v-9Z"/><path class="cls-1" d="M112.74,55.64v5.61c0,1.72.11,2,.86,2.17a16.33,16.33,0,0,0,3,.17c2.89,0,3.76-.11,4.09-.49s.27-.45.28-3V55.64h1.2v4.42a20.16,20.16,0,0,1-.07,2.49,1.92,1.92,0,0,1-1.63,1.93,27.07,27.07,0,0,1-3.6.19,23.34,23.34,0,0,1-3.7-.19,2,2,0,0,1-1.53-1.77,18.64,18.64,0,0,1-.09-2.65V55.64Z"/><path class="cls-1" d="M125.83,55.64l4.89,7.64,4.79-7.64h2.42v9h-1.2V56.76h-.5l-5,7.88h-1l-5.07-7.88h-.53v7.88h-1.2v-9Z"/><path class="cls-1" d="M141.28,55.64l7.87,7.89h.28V55.64h1.2v9h-2l-7.84-7.88h-.27v7.88h-1.2v-9Z"/><path class="cls-1" d="M153.18,55.64v9H152v-9Z"/></g></g></svg>